<mxfile host="app.diagrams.net" modified="2022-12-13T17:50:19.268Z" agent="5.0 (Windows NT 10.0; Win64; x64) AppleWebKit/537.36 (KHTML, like Gecko) Chrome/107.0.0.0 Safari/537.36 OPR/93.0.0.0" version="20.6.2" etag="597Pt2QxBdk6SfrQx2c5" type="github">
  <diagram id="jODkar-HizkLDFU8FSJ0" name="Sivu-1">
    <mxGraphModel dx="742" dy="438" grid="1" gridSize="10" guides="1" tooltips="1" connect="1" arrows="1" fold="1" page="1" pageScale="1" pageWidth="827" pageHeight="1169" math="0" shadow="0">
      <root>
        <mxCell id="0" />
        <mxCell id="1" parent="0" />
        <mxCell id="2xxznKdQmu9On9aq7GUj-3" value="" style="edgeStyle=orthogonalEdgeStyle;rounded=0;orthogonalLoop=1;jettySize=auto;html=1;fontSize=18;" edge="1" parent="1" source="2xxznKdQmu9On9aq7GUj-1" target="2xxznKdQmu9On9aq7GUj-2">
          <mxGeometry relative="1" as="geometry" />
        </mxCell>
        <mxCell id="2xxznKdQmu9On9aq7GUj-1" value="&lt;font style=&quot;font-size: 18px;&quot;&gt;Aloitus&lt;/font&gt;" style="ellipse;whiteSpace=wrap;html=1;" vertex="1" parent="1">
          <mxGeometry x="165" y="10" width="210" height="80" as="geometry" />
        </mxCell>
        <mxCell id="2xxznKdQmu9On9aq7GUj-29" value="" style="edgeStyle=orthogonalEdgeStyle;rounded=0;orthogonalLoop=1;jettySize=auto;html=1;fontSize=18;" edge="1" parent="1" source="2xxznKdQmu9On9aq7GUj-2" target="2xxznKdQmu9On9aq7GUj-24">
          <mxGeometry relative="1" as="geometry" />
        </mxCell>
        <mxCell id="2xxznKdQmu9On9aq7GUj-2" value="Lue luku: 10 tuntia 10 minuuttia 10 sekuntia" style="shape=parallelogram;perimeter=parallelogramPerimeter;whiteSpace=wrap;html=1;fixedSize=1;fontSize=18;" vertex="1" parent="1">
          <mxGeometry x="160" y="140" width="220" height="60" as="geometry" />
        </mxCell>
        <mxCell id="2xxznKdQmu9On9aq7GUj-31" value="" style="edgeStyle=orthogonalEdgeStyle;rounded=0;orthogonalLoop=1;jettySize=auto;html=1;fontSize=18;" edge="1" parent="1" source="2xxznKdQmu9On9aq7GUj-15" target="2xxznKdQmu9On9aq7GUj-30">
          <mxGeometry relative="1" as="geometry" />
        </mxCell>
        <mxCell id="2xxznKdQmu9On9aq7GUj-15" value="Luo funktio (kesto) joka muuttaa annetun ajan sekunneiksi: const[10tuntia:10minuuttia:10sekuntia] = kesto.split(&#39;:&#39;)&lt;br&gt;return 10tuntia * 60 * 60 + 10minuuttia * 60 + 10 sekuntia" style="rounded=0;whiteSpace=wrap;html=1;fontSize=18;" vertex="1" parent="1">
          <mxGeometry x="15" y="360" width="510" height="110" as="geometry" />
        </mxCell>
        <mxCell id="2xxznKdQmu9On9aq7GUj-25" value="" style="edgeStyle=orthogonalEdgeStyle;rounded=0;orthogonalLoop=1;jettySize=auto;html=1;fontSize=18;" edge="1" parent="1" source="2xxznKdQmu9On9aq7GUj-24" target="2xxznKdQmu9On9aq7GUj-15">
          <mxGeometry relative="1" as="geometry" />
        </mxCell>
        <mxCell id="2xxznKdQmu9On9aq7GUj-24" value="Luo muuttujat&lt;br&gt;const = 10:10:10&lt;br&gt;const tulos = (kesto)" style="rounded=0;whiteSpace=wrap;html=1;fontSize=18;" vertex="1" parent="1">
          <mxGeometry x="85" y="240" width="370" height="70" as="geometry" />
        </mxCell>
        <mxCell id="2xxznKdQmu9On9aq7GUj-34" value="" style="edgeStyle=orthogonalEdgeStyle;rounded=0;orthogonalLoop=1;jettySize=auto;html=1;fontSize=18;" edge="1" parent="1" source="2xxznKdQmu9On9aq7GUj-28" target="2xxznKdQmu9On9aq7GUj-33">
          <mxGeometry relative="1" as="geometry" />
        </mxCell>
        <mxCell id="2xxznKdQmu9On9aq7GUj-28" value="Tulosta konsoliin console.log(kesto)" style="shape=parallelogram;perimeter=parallelogramPerimeter;whiteSpace=wrap;html=1;fixedSize=1;fontSize=18;" vertex="1" parent="1">
          <mxGeometry x="100" y="650" width="340" height="100" as="geometry" />
        </mxCell>
        <mxCell id="2xxznKdQmu9On9aq7GUj-32" value="" style="edgeStyle=orthogonalEdgeStyle;rounded=0;orthogonalLoop=1;jettySize=auto;html=1;fontSize=18;" edge="1" parent="1" source="2xxznKdQmu9On9aq7GUj-30" target="2xxznKdQmu9On9aq7GUj-28">
          <mxGeometry relative="1" as="geometry" />
        </mxCell>
        <mxCell id="2xxznKdQmu9On9aq7GUj-30" value="const tulos = (kesto)" style="rounded=0;whiteSpace=wrap;html=1;fontSize=18;" vertex="1" parent="1">
          <mxGeometry x="100" y="525" width="340" height="60" as="geometry" />
        </mxCell>
        <mxCell id="2xxznKdQmu9On9aq7GUj-33" value="Loppu" style="ellipse;whiteSpace=wrap;html=1;fontSize=18;" vertex="1" parent="1">
          <mxGeometry x="155" y="800" width="230" height="80" as="geometry" />
        </mxCell>
      </root>
    </mxGraphModel>
  </diagram>
</mxfile>
